<?xml version="1.0" encoding="UTF-8" standalone="no"?>
<svg
   xmlns:dc="http://purl.org/dc/elements/1.1/"
   xmlns:cc="http://creativecommons.org/ns#"
   xmlns:rdf="http://www.w3.org/1999/02/22-rdf-syntax-ns#"
   xmlns:svg="http://www.w3.org/2000/svg"
   xmlns="http://www.w3.org/2000/svg"
   xmlns:xlink="http://www.w3.org/1999/xlink"
   width="24.580929mm"
   height="16.535837mm"
   viewBox="0 0 24.580929 16.535837"
   version="1.1"
   id="svg8">
  <defs
     id="defs2">
    <rect
       x="-12.070914"
       y="23.032377"
       width="13.62227"
       height="11.592176"
       id="rect990" />
    <linearGradient
       id="linearGradient843-1">
      <stop
         style="stop-color:#cc0000;stop-opacity:1"
         offset="0"
         id="stop847" />
      <stop
         style="stop-color:#930000;stop-opacity:1"
         offset="1"
         id="stop849" />
    </linearGradient>
    <linearGradient
       xlink:href="#linearGradient843-1"
       id="linearGradient854"
       x1="20.34675"
       y1="21.223684"
       x2="25.788719"
       y2="21.088034"
       gradientUnits="userSpaceOnUse"
       gradientTransform="matrix(0.99724139,0,0,1,0.1327383,0)" />
  </defs>
  <metadata
     id="metadata5">
    <rdf:RDF>
      <cc:Work
         rdf:about="">
        <dc:format>image/svg+xml</dc:format>
        <dc:type
           rdf:resource="http://purl.org/dc/dcmitype/StillImage" />
        <dc:title></dc:title>
      </cc:Work>
    </rdf:RDF>
  </metadata>
  <g
     id="layer1"
     transform="translate(-4.150651,-12.485647)">
    <path
       id="rect903"
       style="fill:#204a87;fill-opacity:1;stroke:none;stroke-width:4.20147;paint-order:stroke fill markers;stop-color:#000000"
       d="M 15.6875,79.824219 V 99.404297 L 26.037933,109.6875 H 108.5918 l -0.16797,-19.791016 -8.04297,-9.492187 z"
       transform="scale(0.26458333)" />
    <path
       style="font-variation-settings:normal;opacity:1;vector-effect:none;fill:#3465a4;fill-opacity:1;stroke:none;stroke-width:1.32292;stroke-linecap:butt;stroke-linejoin:miter;stroke-miterlimit:4;stroke-dasharray:none;stroke-dashoffset:0;stroke-opacity:1;paint-order:stroke fill markers;stop-color:#000000;stop-opacity:1"
       d="M 28.709359,23.785112 6.9114237,23.970629 4.1728721,21.120158 26.581323,21.273637 Z"
       id="path963" />
    <path
       id="rect14"
       style="fill:#cc0000;fill-opacity:1;stroke-width:1.17937;paint-order:stroke fill markers;stop-color:#000000"
       d="M 8.0450852,13.833102 H 24.943364 v 8.37185 H 8.0450852 Z" />
    <path
       id="path10"
       style="fill:#b60000;fill-opacity:1;stroke-width:1.181;paint-order:stroke fill markers;stop-color:#000000"
       d="m 24.943364,13.796679 c 0,0.724063 -3.782216,1.311032 -8.444838,1.311032 -4.662623,0 -8.4534404,-0.586969 -8.4534408,-1.311032 4e-7,-0.724063 3.7908178,-1.311032 8.4534408,-1.311032 4.662622,0 8.444838,0.586969 8.444838,1.311032 z" />
    <path
       id="path918"
       style="font-variation-settings:normal;vector-effect:none;fill:#cc0000;fill-opacity:1;stroke-width:1.17937;stroke-linecap:butt;stroke-linejoin:miter;stroke-miterlimit:4;stroke-dasharray:none;stroke-dashoffset:0;stroke-opacity:1;paint-order:stroke fill markers;stop-color:#000000"
       d="m 24.943364,22.204952 c 0,0.724063 -3.782216,1.311032 -8.444838,1.311032 -4.662623,0 -8.4534404,-0.586969 -8.4534408,-1.311032 4e-7,-0.724063 3.7908178,-1.311032 8.4534408,-1.311032 4.662622,0 8.444838,0.586969 8.444838,1.311032 z" />
    <g
       aria-label="BUZZ"
       id="text988"
       style="font-weight:bold;font-size:4.98078px;line-height:0.85;font-family:Roboto;-inkscape-font-specification:'Roboto, Bold';letter-spacing:0px;word-spacing:0px;writing-mode:lr-tb;white-space:pre;fill:#ffffff"
       transform="translate(0.55114363)">
      <path
         d="m 11.983625,28.371904 v -3.541023 h 1.240331 q 0.644486,0 0.977673,0.248066 0.333187,0.245634 0.333187,0.722311 0,0.260226 -0.133761,0.459652 -0.133762,0.196993 -0.3721,0.28941 0.272387,0.0681 0.428036,0.274819 0.158081,0.206722 0.158081,0.50586 0,0.510725 -0.32589,0.773383 -0.325891,0.262658 -0.929033,0.267522 z m 0.729607,-1.541901 v 0.955784 h 0.625029 q 0.257794,0 0.401284,-0.121601 0.145921,-0.124033 0.145921,-0.340483 0,-0.486404 -0.503428,-0.4937 z m 0,-0.515589 h 0.539908 q 0.552069,-0.0097 0.552069,-0.440196 0,-0.24077 -0.141057,-0.345347 -0.138625,-0.107009 -0.440196,-0.107009 h -0.510724 z"
         style="fill:#ffffff"
         id="path1005" />
      <path
         d="m 17.842365,24.830881 v 2.332309 q 0,0.581253 -0.364803,0.919304 -0.362372,0.338051 -0.992265,0.338051 -0.620166,0 -0.984969,-0.328323 -0.364803,-0.328323 -0.372099,-0.90228 v -2.359061 h 0.729606 v 2.337173 q 0,0.347779 0.165378,0.508292 0.167809,0.158082 0.462084,0.158082 0.615301,0 0.625029,-0.646918 v -2.356629 z"
         style="fill:#ffffff"
         id="path1007" />
      <path
         d="m 19.214025,27.785787 h 1.785104 v 0.586117 h -2.697112 v -0.428035 l 1.751055,-2.522007 h -1.748623 v -0.590981 h 2.655767 v 0.418308 z"
         style="fill:#ffffff"
         id="path1009" />
      <path
         d="m 22.232164,27.785787 h 1.785104 v 0.586117 h -2.697112 v -0.428035 l 1.751055,-2.522007 h -1.748623 v -0.590981 h 2.655767 v 0.418308 z"
         style="fill:#ffffff"
         id="path1011" />
    </g>
  </g>
</svg>
